<svg width="24" height="24" viewBox="0 0 24 24" fill="none" xmlns="http://www.w3.org/2000/svg">
<g clip-path="url(#clip0_8_179)">
<path d="M21.3333 18.6667H2.66668V14.2133C2.17017 13.9755 1.71897 13.6529 1.33334 13.26V18.6667C1.33334 19.0203 1.47382 19.3594 1.72387 19.6095C1.97392 19.8595 2.31305 20 2.66668 20H21.3333C21.687 20 22.0261 19.8595 22.2762 19.6095C22.5262 19.3594 22.6667 19.0203 22.6667 18.6667V13.26C22.2839 13.6545 21.8319 13.9753 21.3333 14.2067V18.6667Z" fill="black"/>
<path d="M16.6667 14.9333C16.8435 14.9333 17.0131 14.8631 17.1381 14.7381C17.2631 14.613 17.3333 14.4435 17.3333 14.2666V10.6266H16V12H9.33334V13.3333H16V14.2666C16 14.4435 16.0702 14.613 16.1953 14.7381C16.3203 14.8631 16.4899 14.9333 16.6667 14.9333Z" fill="black"/>
<path d="M22 3.99998H16V2.91998C15.993 2.49326 15.8172 2.08669 15.511 1.78931C15.2049 1.49193 14.7934 1.32797 14.3667 1.33332H9.63334C9.20659 1.32797 8.7951 1.49193 8.48898 1.78931C8.18285 2.08669 8.00703 2.49326 8.00001 2.91998V3.99998H2.00001C1.8232 3.99998 1.65363 4.07022 1.52861 4.19525C1.40358 4.32027 1.33334 4.48984 1.33334 4.66665V9.99998C1.33334 10.884 1.68453 11.7319 2.30965 12.357C2.93478 12.9821 3.78262 13.3333 4.66668 13.3333H6.66668V14.2667C6.66668 14.4435 6.73692 14.613 6.86194 14.7381C6.98696 14.8631 7.15653 14.9333 7.33334 14.9333C7.51015 14.9333 7.67972 14.8631 7.80475 14.7381C7.92977 14.613 8.00001 14.4435 8.00001 14.2667V10.6267H6.66668V12H4.66668C4.13624 12 3.62754 11.7893 3.25246 11.4142C2.87739 11.0391 2.66668 10.5304 2.66668 9.99998V5.33332H21.3333V9.99998C21.3333 10.5304 21.1226 11.0391 20.7476 11.4142C20.3725 11.7893 19.8638 12 19.3333 12H18.6667V13.3333H19.3333C20.2174 13.3333 21.0652 12.9821 21.6904 12.357C22.3155 11.7319 22.6667 10.884 22.6667 9.99998V4.66665C22.6667 4.48984 22.5964 4.32027 22.4714 4.19525C22.3464 4.07022 22.1768 3.99998 22 3.99998ZM14.6667 3.99998H9.33334V2.95332C9.33678 2.87609 9.3699 2.80316 9.42579 2.74975C9.48168 2.69634 9.55604 2.66657 9.63334 2.66665H14.3733C14.411 2.66577 14.4484 2.67231 14.4836 2.6859C14.5187 2.69949 14.5508 2.71987 14.578 2.74588C14.6053 2.77188 14.6271 2.80299 14.6423 2.83744C14.6575 2.87189 14.6658 2.909 14.6667 2.94665V3.99998Z" fill="black"/>
</g>
<defs>
<clipPath id="clip0_8_179">
<rect width="24" height="24" fill="white"/>
</clipPath>
</defs>
</svg>
